<svg width="393" height="78" xmlns="http://www.w3.org/2000/svg"><path d="M69.55 64.14v-8.89h35.62v-8.87H69.55V21.99h44.52v8.87H78.46v6.65h35.61v26.63H69.55zm52.3 0h8.91V21.99h-8.91v42.15zm165.79 0V21.99h-8.9v29.38l-26.67-29.38h-8.9v42.15h8.9v-29.4l26.71 29.4h8.86zm-97-33.26h44.69v-8.89h-44.64l-.05 8.89zm0 15.52h44.69v-8.89h-44.64l-.05 8.89zm0 17.74h44.69v-8.89h-44.64l-.05 8.89zm157.4-33.28h44.69v-8.87h-44.69v8.87zm0 15.52h44.69v-8.87h-44.69v8.87zm0 17.74h44.69v-8.87h-44.69v8.87zm-165 0V37.51h-35.58v-6.65h35.61v-8.87h-44.52v24.39h35.62v8.87h-35.62v8.89l44.49-.02zm156.76 0V37.51h-35.58v-6.65h35.61v-8.87h-44.52v24.39h35.62v8.87h-35.62v8.89l44.49-.02zM43.24 15.62L0 0v31.25l43.24-15.63zm0 43.33L0 43.33v31.24l43.24-15.62zM14.53 37.64l43.23 15.62V22.02L14.53 37.64zm25.22 33.18l18 6.5v-13l-18 6.5z"/></svg>